<svg width="128" height="27" viewBox="0 0 128 27" fill="none" xmlns="http://www.w3.org/2000/svg">
<rect y="0.5" width="128" height="26" rx="13" fill="#FFC95E"/>
<path fill-rule="evenodd" clip-rule="evenodd" d="M17.3651 5.83242C16.8534 5.90004 16.2215 6.04518 15.3227 6.25261L14.2992 6.4888C13.54 6.664 13.0172 6.78545 12.6179 6.9225C12.2323 7.05482 12.0142 7.18526 11.8497 7.34983C11.6851 7.51441 11.5546 7.73252 11.4223 8.11804C11.2853 8.51737 11.1638 9.04019 10.9886 9.79937L10.7524 10.8229C10.545 11.7217 10.3999 12.3536 10.3322 12.8653C10.2664 13.3638 10.2815 13.7011 10.3695 14.0077C10.4574 14.3143 10.6233 14.6084 10.9434 14.9962C11.2719 15.3943 11.7299 15.8532 12.3822 16.5055L13.9069 18.0302C15.0398 19.1631 15.8459 19.9674 16.539 20.4962C17.2177 21.0139 17.7139 21.2084 18.2184 21.2084C18.723 21.2084 19.2192 21.0139 19.8979 20.4962C20.5909 19.9674 21.3971 19.1631 22.53 18.0302C23.6629 16.8973 24.4672 16.0911 24.996 15.3981C25.5138 14.7194 25.7082 14.2232 25.7082 13.7186C25.7082 13.2141 25.5138 12.7178 24.996 12.0392C24.4672 11.3461 23.6629 10.54 22.53 9.40706L21.0053 7.88237C20.353 7.23008 19.8941 6.77211 19.496 6.44357C19.1082 6.12349 18.8141 5.95761 18.5075 5.86967C18.2009 5.78173 17.8636 5.76654 17.3651 5.83242ZM17.2013 4.59319C17.7991 4.5142 18.3232 4.51643 18.8521 4.66811C19.381 4.81979 19.8267 5.0957 20.2917 5.4795C20.7412 5.85052 21.2419 6.35117 21.8673 6.97663L23.4472 8.55647C24.5394 9.64864 25.4041 10.5133 25.9898 11.281C26.5924 12.0708 26.9582 12.8309 26.9582 13.7186C26.9582 14.6064 26.5924 15.3664 25.9898 16.1563C25.4041 16.9239 24.5394 17.7886 23.4472 18.8808L23.3806 18.9473C22.2884 20.0395 21.4237 20.9043 20.6561 21.4899C19.8663 22.0926 19.1062 22.4584 18.2184 22.4584C17.3307 22.4584 16.5706 22.0926 15.7808 21.4899C15.0132 20.9042 14.1484 20.0395 13.0563 18.9473L11.4765 17.3675C10.851 16.7421 10.3503 16.2414 9.97932 15.7919C9.59552 15.3268 9.31961 14.8812 9.16792 14.3523C9.01624 13.8234 9.01401 13.2993 9.09301 12.7015C9.16938 12.1236 9.32859 11.4337 9.5275 10.5719L9.77805 9.48614C9.94402 8.76688 10.0794 8.18035 10.24 7.71226C10.4078 7.2234 10.6191 6.8126 10.9658 6.46595C11.3124 6.1193 11.7232 5.90798 12.2121 5.7402C12.6802 5.57955 13.2667 5.4442 13.986 5.27823L15.0717 5.02768C15.9336 4.82878 16.6235 4.66956 17.2013 4.59319ZM15.9089 10.1627C15.5021 9.75591 14.8426 9.75591 14.4358 10.1627C14.029 10.5695 14.029 11.229 14.4358 11.6358C14.8426 12.0426 15.5021 12.0426 15.9089 11.6358C16.3157 11.229 16.3157 10.5695 15.9089 10.1627ZM13.5519 9.27882C14.4469 8.38387 15.8979 8.38387 16.7928 9.27882C17.6878 10.1738 17.6878 11.6248 16.7928 12.5197C15.8979 13.4147 14.4469 13.4147 13.5519 12.5197C12.657 11.6248 12.657 10.1738 13.5519 9.27882ZM18.8273 13.5891C18.6798 13.5878 18.4861 13.6539 18.3199 13.8201C17.997 14.143 18.0819 14.466 18.1726 14.5567C18.2633 14.6474 18.5862 14.7323 18.9092 14.4093C19.5625 13.756 20.6906 13.5391 21.4135 14.262C21.9743 14.8228 21.9695 15.6275 21.6342 16.2652C21.8018 16.5086 21.7773 16.8445 21.5608 17.061C21.345 17.2768 21.0108 17.3018 20.7675 17.1361C20.3868 17.3384 19.9536 17.4142 19.5407 17.3294C19.2026 17.2599 18.9848 16.9295 19.0543 16.5914C19.1238 16.2533 19.4542 16.0355 19.7923 16.105C19.9399 16.1353 20.1779 16.0869 20.3823 15.8825C20.7052 15.5595 20.6203 15.2366 20.5296 15.1459C20.4389 15.0552 20.116 14.9703 19.793 15.2932C19.1397 15.9466 18.0116 16.1634 17.2887 15.4405C16.7279 14.8797 16.7327 14.0751 17.068 13.4374C16.9004 13.1939 16.9249 12.8581 17.1414 12.6416C17.3571 12.4259 17.6913 12.4008 17.9345 12.5664C18.2178 12.4159 18.5289 12.3363 18.839 12.3392C19.1842 12.3425 19.4614 12.6249 19.4581 12.9701C19.4549 13.3152 19.1724 13.5924 18.8273 13.5891Z" fill="white"/>
<path d="M42.242 18.64C41.514 18.64 40.884 18.4907 40.352 18.192C39.82 17.8933 39.4047 17.4687 39.106 16.918C38.8167 16.3673 38.672 15.714 38.672 14.958C38.672 14.202 38.8167 13.5533 39.106 13.012C39.4047 12.4613 39.82 12.0367 40.352 11.738C40.884 11.4393 41.514 11.29 42.242 11.29C42.97 11.29 43.6 11.4393 44.132 11.738C44.6733 12.0367 45.0887 12.4613 45.378 13.012C45.6767 13.5533 45.826 14.202 45.826 14.958C45.826 15.714 45.6767 16.3673 45.378 16.918C45.0887 17.4687 44.6733 17.8933 44.132 18.192C43.6 18.4907 42.97 18.64 42.242 18.64ZM42.242 17.296C42.7927 17.296 43.2313 17.1047 43.558 16.722C43.8847 16.33 44.048 15.742 44.048 14.958C44.048 14.174 43.8847 13.5907 43.558 13.208C43.2313 12.8253 42.7927 12.634 42.242 12.634C41.6913 12.634 41.2527 12.8253 40.926 13.208C40.5993 13.5907 40.436 14.174 40.436 14.958C40.436 15.742 40.5993 16.33 40.926 16.722C41.2527 17.1047 41.6913 17.296 42.242 17.296ZM49.0102 18.5V12.802H46.5882V11.43H53.1822V12.802H50.7462V18.5H49.0102ZM60.7533 20.11V18.276L61.0753 18.584C60.3939 18.5653 59.7499 18.4627 59.1433 18.276C58.5459 18.08 58.0279 17.8093 57.5893 17.464L58.1353 16.05C58.5739 16.3767 59.0546 16.6287 59.5773 16.806C60.0999 16.9833 60.6739 17.072 61.2993 17.072C61.9993 17.072 62.5079 16.9507 62.8253 16.708C63.1519 16.456 63.3153 16.1433 63.3153 15.77C63.3153 15.462 63.1986 15.2147 62.9653 15.028C62.7413 14.8413 62.3539 14.6873 61.8033 14.566L60.3193 14.244C59.4606 14.0573 58.8213 13.7447 58.4013 13.306C57.9906 12.858 57.7853 12.2747 57.7853 11.556C57.7853 11.0053 57.9206 10.5153 58.1913 10.086C58.4619 9.64733 58.8399 9.29733 59.3253 9.036C59.8106 8.77467 60.3799 8.62067 61.0333 8.574L60.7533 8.784V7.02H62.1533V8.784L61.8593 8.56C62.3913 8.588 62.9139 8.69533 63.4273 8.882C63.9499 9.06867 64.3839 9.33933 64.7293 9.694L64.1973 11.038C63.8426 10.7113 63.4366 10.4687 62.9793 10.31C62.5219 10.142 62.0226 10.058 61.4813 10.058C60.8653 10.058 60.3799 10.1933 60.0253 10.464C59.6706 10.7253 59.4933 11.0707 59.4933 11.5C59.4933 11.8173 59.6006 12.0787 59.8153 12.284C60.0393 12.48 60.4079 12.634 60.9213 12.746L62.4053 13.068C63.3013 13.2547 63.9639 13.5627 64.3933 13.992C64.8319 14.412 65.0513 14.9673 65.0513 15.658C65.0513 16.1993 64.9159 16.68 64.6453 17.1C64.3746 17.5107 64.0013 17.842 63.5253 18.094C63.0586 18.3367 62.5126 18.4907 61.8873 18.556L62.1533 18.262V20.11H60.7533ZM66.7118 18.5L71.4998 9.512V10.142H66.2638V8.63H73.1658V9.974L68.6858 18.5H66.7118ZM78.1723 18.64C77.743 18.64 77.3137 18.5933 76.8843 18.5C76.4643 18.4067 76.0677 18.276 75.6943 18.108C75.3303 17.94 75.0177 17.7393 74.7563 17.506L75.3443 16.148C75.783 16.4747 76.231 16.722 76.6883 16.89C77.155 17.0487 77.6403 17.128 78.1443 17.128C78.751 17.128 79.2223 16.9787 79.5583 16.68C79.9037 16.372 80.0763 15.9613 80.0763 15.448C80.0763 14.9253 79.913 14.5053 79.5863 14.188C79.2597 13.8613 78.8117 13.698 78.2423 13.698C77.841 13.698 77.4723 13.7773 77.1363 13.936C76.8097 14.0853 76.5157 14.3187 76.2543 14.636H75.0643V8.63H81.1963V10.114H76.7723V13.25H76.3383C76.581 12.9233 76.903 12.6713 77.3043 12.494C77.715 12.3167 78.1723 12.228 78.6763 12.228C79.311 12.228 79.8617 12.3587 80.3283 12.62C80.795 12.8813 81.159 13.25 81.4203 13.726C81.6817 14.1927 81.8123 14.7433 81.8123 15.378C81.8123 16.022 81.663 16.5913 81.3643 17.086C81.075 17.5713 80.655 17.954 80.1043 18.234C79.563 18.5047 78.919 18.64 78.1723 18.64ZM86.5669 18.64C86.1375 18.64 85.7082 18.5933 85.2789 18.5C84.8589 18.4067 84.4622 18.276 84.0889 18.108C83.7249 17.94 83.4122 17.7393 83.1509 17.506L83.7389 16.148C84.1775 16.4747 84.6255 16.722 85.0829 16.89C85.5495 17.0487 86.0349 17.128 86.5389 17.128C87.1455 17.128 87.6169 16.9787 87.9529 16.68C88.2982 16.372 88.4709 15.9613 88.4709 15.448C88.4709 14.9253 88.3075 14.5053 87.9809 14.188C87.6542 13.8613 87.2062 13.698 86.6369 13.698C86.2355 13.698 85.8669 13.7773 85.5309 13.936C85.2042 14.0853 84.9102 14.3187 84.6489 14.636H83.4589V8.63H89.5909V10.114H85.1669V13.25H84.7329C84.9755 12.9233 85.2975 12.6713 85.6989 12.494C86.1095 12.3167 86.5669 12.228 87.0709 12.228C87.7055 12.228 88.2562 12.3587 88.7229 12.62C89.1895 12.8813 89.5535 13.25 89.8149 13.726C90.0762 14.1927 90.2069 14.7433 90.2069 15.378C90.2069 16.022 90.0575 16.5913 89.7589 17.086C89.4695 17.5713 89.0495 17.954 88.4989 18.234C87.9575 18.5047 87.3135 18.64 86.5669 18.64ZM98.7332 18.64C97.5759 18.64 96.6845 18.2013 96.0592 17.324C95.4339 16.4373 95.1212 15.1773 95.1212 13.544C95.1212 11.892 95.4339 10.6367 96.0592 9.778C96.6845 8.91933 97.5759 8.49 98.7332 8.49C99.8999 8.49 100.791 8.91933 101.407 9.778C102.033 10.6367 102.345 11.8873 102.345 13.53C102.345 15.1727 102.033 16.4373 101.407 17.324C100.791 18.2013 99.8999 18.64 98.7332 18.64ZM98.7332 17.156C99.3679 17.156 99.8392 16.8667 100.147 16.288C100.455 15.7 100.609 14.7807 100.609 13.53C100.609 12.2793 100.455 11.374 100.147 10.814C99.8392 10.2447 99.3679 9.96 98.7332 9.96C98.1079 9.96 97.6365 10.2447 97.3192 10.814C97.0112 11.374 96.8572 12.2793 96.8572 13.53C96.8572 14.7807 97.0112 15.7 97.3192 16.288C97.6365 16.8667 98.1079 17.156 98.7332 17.156ZM107.128 18.64C105.97 18.64 105.079 18.2013 104.454 17.324C103.828 16.4373 103.516 15.1773 103.516 13.544C103.516 11.892 103.828 10.6367 104.454 9.778C105.079 8.91933 105.97 8.49 107.128 8.49C108.294 8.49 109.186 8.91933 109.802 9.778C110.427 10.6367 110.74 11.8873 110.74 13.53C110.74 15.1727 110.427 16.4373 109.802 17.324C109.186 18.2013 108.294 18.64 107.128 18.64ZM107.128 17.156C107.762 17.156 108.234 16.8667 108.542 16.288C108.85 15.7 109.004 14.7807 109.004 13.53C109.004 12.2793 108.85 11.374 108.542 10.814C108.234 10.2447 107.762 9.96 107.128 9.96C106.502 9.96 106.031 10.2447 105.714 10.814C105.406 11.374 105.252 12.2793 105.252 13.53C105.252 14.7807 105.406 15.7 105.714 16.288C106.031 16.8667 106.502 17.156 107.128 17.156ZM115.522 18.64C114.365 18.64 113.474 18.2013 112.848 17.324C112.223 16.4373 111.91 15.1773 111.91 13.544C111.91 11.892 112.223 10.6367 112.848 9.778C113.474 8.91933 114.365 8.49 115.522 8.49C116.689 8.49 117.58 8.91933 118.196 9.778C118.822 10.6367 119.134 11.8873 119.134 13.53C119.134 15.1727 118.822 16.4373 118.196 17.324C117.58 18.2013 116.689 18.64 115.522 18.64ZM115.522 17.156C116.157 17.156 116.628 16.8667 116.936 16.288C117.244 15.7 117.398 14.7807 117.398 13.53C117.398 12.2793 117.244 11.374 116.936 10.814C116.628 10.2447 116.157 9.96 115.522 9.96C114.897 9.96 114.426 10.2447 114.108 10.814C113.8 11.374 113.646 12.2793 113.646 13.53C113.646 14.7807 113.8 15.7 114.108 16.288C114.426 16.8667 114.897 17.156 115.522 17.156Z" fill="white"/>
</svg>
