<svg width="18" height="18" viewBox="0 0 18 18" fill="none" xmlns="http://www.w3.org/2000/svg">
<path fill-rule="evenodd" clip-rule="evenodd" d="M8.12317 0.0416879H9.8765C10.6252 0.0416635 11.2496 0.041643 11.7452 0.108282C12.2684 0.178619 12.7407 0.333344 13.1203 0.712903C13.4998 1.09246 13.6546 1.56479 13.7249 2.08796C13.7916 2.58361 13.7915 3.20796 13.7915 3.95669L13.7915 5.04173C14.272 5.04211 14.6791 5.04578 15.0157 5.08001C15.4102 5.12015 15.7764 5.20741 16.1064 5.4279C16.3566 5.5951 16.5714 5.80995 16.7386 6.06017C16.9591 6.39017 17.0464 6.75631 17.0865 7.15087C17.1249 7.52782 17.1249 7.99343 17.1248 8.55142V16.7084H17.3332C17.6783 16.7084 17.9582 16.9882 17.9582 17.3334C17.9582 17.6785 17.6783 17.9584 17.3332 17.9584H0.666504C0.321326 17.9584 0.0415039 17.6785 0.0415039 17.3334C0.0415039 16.9882 0.321326 16.7084 0.666504 16.7084H0.874837L0.874837 8.5514C0.874823 7.99342 0.874811 7.52781 0.913157 7.15087C0.953294 6.75631 1.04056 6.39017 1.26105 6.06017C1.42825 5.80995 1.64309 5.5951 1.89332 5.4279C2.22332 5.20741 2.58946 5.12015 2.98402 5.08001C3.32053 5.04578 3.7277 5.04211 4.20817 5.04173L4.20817 3.95669C4.20815 3.20796 4.20812 2.58361 4.27476 2.08796C4.3451 1.56479 4.49983 1.09246 4.87938 0.712903C5.25894 0.333344 5.73128 0.178619 6.25444 0.108282C6.75009 0.041643 7.37444 0.0416635 8.12317 0.0416879ZM4.20817 6.29177C3.72268 6.29231 3.37972 6.29621 3.11053 6.32359C2.8148 6.35367 2.67816 6.40685 2.58779 6.46724C2.47405 6.54324 2.37639 6.6409 2.30039 6.75464C2.24 6.84501 2.18682 6.98165 2.15674 7.27738C2.12559 7.58355 2.12484 7.98515 2.12484 8.58336V16.7084H4.20817V6.29177ZM5.45817 16.7084H8.37484V14.8334C8.37484 14.4882 8.65466 14.2084 8.99984 14.2084C9.34501 14.2084 9.62484 14.4882 9.62484 14.8334V16.7084H12.5415V4.00002C12.5415 3.19668 12.5402 2.65705 12.4861 2.25452C12.4344 1.86996 12.345 1.70538 12.2364 1.59679C12.1278 1.48819 11.9632 1.39884 11.5787 1.34713C11.1761 1.29302 10.6365 1.29169 9.83317 1.29169H8.1665C7.36316 1.29169 6.82353 1.29302 6.421 1.34713C6.03645 1.39884 5.87186 1.48819 5.76327 1.59679C5.65467 1.70538 5.56532 1.86996 5.51362 2.25452C5.4595 2.65705 5.45817 3.19668 5.45817 4.00002V16.7084ZM13.7915 16.7084H15.8748V8.58336C15.8748 7.98515 15.8741 7.58355 15.8429 7.27738C15.8129 6.98165 15.7597 6.84501 15.6993 6.75464C15.6233 6.6409 15.5256 6.54324 15.4119 6.46724C15.3215 6.40685 15.1849 6.35367 14.8891 6.32359C14.62 6.29621 14.277 6.29231 13.7915 6.29177V16.7084ZM6.70817 3.16669C6.70817 2.82151 6.98799 2.54169 7.33317 2.54169H10.6665C11.0117 2.54169 11.2915 2.82151 11.2915 3.16669C11.2915 3.51187 11.0117 3.79169 10.6665 3.79169H7.33317C6.98799 3.79169 6.70817 3.51187 6.70817 3.16669ZM6.70817 5.66669C6.70817 5.32151 6.98799 5.04169 7.33317 5.04169H10.6665C11.0117 5.04169 11.2915 5.32151 11.2915 5.66669C11.2915 6.01187 11.0117 6.29169 10.6665 6.29169H7.33317C6.98799 6.29169 6.70817 6.01187 6.70817 5.66669ZM6.70817 8.16669C6.70817 7.82151 6.98799 7.54169 7.33317 7.54169H10.6665C11.0117 7.54169 11.2915 7.82151 11.2915 8.16669C11.2915 8.51187 11.0117 8.79169 10.6665 8.79169H7.33317C6.98799 8.79169 6.70817 8.51187 6.70817 8.16669ZM6.70817 10.6667C6.70817 10.3215 6.98799 10.0417 7.33317 10.0417H10.6665C11.0117 10.0417 11.2915 10.3215 11.2915 10.6667C11.2915 11.0119 11.0117 11.2917 10.6665 11.2917H7.33317C6.98799 11.2917 6.70817 11.0119 6.70817 10.6667Z" fill="#13465B"/>
</svg>
