<svg width="18" height="18" viewBox="0 0 18 18" fill="none" xmlns="http://www.w3.org/2000/svg">
<path fill-rule="evenodd" clip-rule="evenodd" d="M8.12341 0.0416879H9.87675C10.6255 0.0416635 11.2498 0.041643 11.7455 0.108282C12.2686 0.178619 12.741 0.333344 13.1205 0.712903C13.5001 1.09246 13.6548 1.56479 13.7252 2.08796C13.7918 2.58361 13.7918 3.20796 13.7917 3.95669L13.7917 5.04173C14.2722 5.04211 14.6794 5.04578 15.0159 5.08001C15.4105 5.12015 15.7766 5.20741 16.1066 5.4279C16.3568 5.5951 16.5717 5.80995 16.7389 6.06017C16.9594 6.39017 17.0466 6.75631 17.0868 7.15087C17.1251 7.52782 17.1251 7.99343 17.1251 8.55142V16.7084H17.3334C17.6786 16.7084 17.9584 16.9882 17.9584 17.3334C17.9584 17.6785 17.6786 17.9584 17.3334 17.9584H0.666748C0.32157 17.9584 0.041748 17.6785 0.041748 17.3334C0.041748 16.9882 0.32157 16.7084 0.666748 16.7084H0.875081L0.875081 8.5514C0.875067 7.99342 0.875055 7.52781 0.913401 7.15087C0.953539 6.75631 1.0408 6.39017 1.2613 6.06017C1.42849 5.80995 1.64334 5.5951 1.89357 5.4279C2.22356 5.20741 2.5897 5.12015 2.98426 5.08001C3.32077 5.04578 3.72794 5.04211 4.20841 5.04173L4.20841 3.95669C4.20839 3.20796 4.20837 2.58361 4.27501 2.08796C4.34534 1.56479 4.50007 1.09246 4.87963 0.712902C5.25919 0.333344 5.73152 0.178619 6.25468 0.108282C6.75033 0.041643 7.37468 0.0416635 8.12341 0.0416879ZM4.20841 6.29177C3.72292 6.29231 3.37996 6.29621 3.11077 6.32359C2.81505 6.35367 2.67841 6.40685 2.58803 6.46724C2.47429 6.54324 2.37663 6.6409 2.30063 6.75464C2.24025 6.84501 2.18707 6.98165 2.15698 7.27738C2.12584 7.58355 2.12508 7.98516 2.12508 8.58335V16.7084H4.20841V6.29177ZM5.45841 16.7084H8.37508V14.8334C8.37508 14.4882 8.6549 14.2084 9.00008 14.2084C9.34526 14.2084 9.62508 14.4882 9.62508 14.8334V16.7084H12.5417V4.00002C12.5417 3.19668 12.5404 2.65705 12.4863 2.25452C12.4346 1.86996 12.3452 1.70538 12.2367 1.59679C12.1281 1.48819 11.9635 1.39884 11.5789 1.34713C11.1764 1.29302 10.6368 1.29169 9.83341 1.29169H8.16675C7.36341 1.29169 6.82377 1.29302 6.42124 1.34713C6.03669 1.39884 5.87211 1.48819 5.76351 1.59679C5.65491 1.70538 5.56556 1.86996 5.51386 2.25452C5.45974 2.65705 5.45841 3.19668 5.45841 4.00002V16.7084ZM13.7917 16.7084H15.8751V8.58335C15.8751 7.98516 15.8743 7.58355 15.8432 7.27738C15.8131 6.98165 15.7599 6.84501 15.6995 6.75464C15.6235 6.6409 15.5259 6.54324 15.4121 6.46724C15.3218 6.40685 15.1851 6.35367 14.8894 6.32359C14.6202 6.29621 14.2772 6.29231 13.7917 6.29177V16.7084ZM6.70841 3.16669C6.70841 2.82151 6.98824 2.54169 7.33341 2.54169H10.6667C11.0119 2.54169 11.2917 2.82151 11.2917 3.16669C11.2917 3.51187 11.0119 3.79169 10.6667 3.79169H7.33341C6.98824 3.79169 6.70841 3.51187 6.70841 3.16669ZM6.70841 5.66669C6.70841 5.32151 6.98824 5.04169 7.33341 5.04169H10.6667C11.0119 5.04169 11.2917 5.32151 11.2917 5.66669C11.2917 6.01187 11.0119 6.29169 10.6667 6.29169H7.33341C6.98824 6.29169 6.70841 6.01187 6.70841 5.66669ZM6.70841 8.16669C6.70841 7.82151 6.98824 7.54169 7.33341 7.54169H10.6667C11.0119 7.54169 11.2917 7.82151 11.2917 8.16669C11.2917 8.51187 11.0119 8.79169 10.6667 8.79169H7.33341C6.98824 8.79169 6.70841 8.51187 6.70841 8.16669ZM6.70841 10.6667C6.70841 10.3215 6.98824 10.0417 7.33341 10.0417H10.6667C11.0119 10.0417 11.2917 10.3215 11.2917 10.6667C11.2917 11.0119 11.0119 11.2917 10.6667 11.2917H7.33341C6.98824 11.2917 6.70841 11.0119 6.70841 10.6667Z" fill="#13465B"/>
</svg>
