<svg width="18" height="18" viewBox="0 0 18 18" fill="none" xmlns="http://www.w3.org/2000/svg">
<path d="M13 0C15.7614 0 18 2.23858 18 5V13C18 15.7614 15.7614 18 13 18H5C2.23858 18 0 15.7614 0 13L0 5C0 2.23858 2.23858 0 5 0L13 0ZM9 5C6.79086 5 5 6.79086 5 9C5 11.2091 6.79086 13 9 13C11.2091 13 13 11.2091 13 9C13 6.79086 11.2091 5 9 5ZM9 7C10.1046 7 11 7.8954 11 9C11 10.1046 10.1046 11 9 11C7.8954 11 7 10.1046 7 9C7 7.8954 7.8954 7 9 7ZM13.5 3.5C12.9477 3.5 12.5 3.94772 12.5 4.5C12.5 5.05228 12.9477 5.5 13.5 5.5C14.0523 5.5 14.5 5.05228 14.5 4.5C14.5 3.94772 14.0523 3.5 13.5 3.5Z" fill="#13465B"/>
</svg>
