<svg width="20" height="20" viewBox="0 0 20 20" fill="none" xmlns="http://www.w3.org/2000/svg">
<g clip-path="url(#clip0_226_481)">
<path d="M4.1665 7.09555C4.1665 4.09727 6.77818 1.66669 9.99984 1.66669C13.2215 1.66669 15.8332 4.09727 15.8332 7.09555C15.8332 10.0703 13.9714 13.5416 11.0666 14.783C10.3894 15.0724 9.61027 15.0724 8.93312 14.783C6.0283 13.5416 4.1665 10.0703 4.1665 7.09555Z" stroke="#13465B" stroke-width="1.5"/>
<path d="M11.6668 7.49998C11.6668 8.42045 10.9206 9.16665 10.0002 9.16665C9.07969 9.16665 8.3335 8.42045 8.3335 7.49998C8.3335 6.57951 9.07969 5.83331 10.0002 5.83331C10.9206 5.83331 11.6668 6.57951 11.6668 7.49998Z" stroke="#13465B" stroke-width="1.5"/>
<path d="M17.4669 12.9167C18.0214 13.4188 18.3332 13.9847 18.3332 14.5834C18.3332 16.6544 14.6022 18.3334 9.99984 18.3334C5.39746 18.3334 1.6665 16.6544 1.6665 14.5834C1.6665 13.9847 1.97827 13.4188 2.53273 12.9167" stroke="#13465B" stroke-width="1.5" stroke-linecap="round"/>
</g>
<defs>
<clipPath id="clip0_226_481">
<rect width="20" height="20" fill="white"/>
</clipPath>
</defs>
</svg>
