<svg width="18" height="18" viewBox="0 0 18 18" fill="none" xmlns="http://www.w3.org/2000/svg">
<path fill-rule="evenodd" clip-rule="evenodd" d="M8.36533 1.33242C7.85363 1.40004 7.22177 1.54518 6.32291 1.75261L5.29943 1.9888C4.54025 2.164 4.01743 2.28545 3.6181 2.4225C3.23258 2.55482 3.01447 2.68526 2.8499 2.84983C2.68532 3.01441 2.55488 3.23252 2.42256 3.61804C2.28551 4.01737 2.16406 4.54019 1.98886 5.29937L1.75267 6.32285C1.54524 7.2217 1.40011 7.85357 1.33248 8.36527C1.2666 8.86378 1.28179 9.20107 1.36973 9.5077C1.45767 9.81433 1.62355 10.1084 1.94363 10.4962C2.27218 10.8943 2.73014 11.3532 3.38243 12.0055L4.90713 13.5302C6.04003 14.6631 6.84619 15.4674 7.53925 15.9962C8.2179 16.5139 8.71415 16.7084 9.21868 16.7084C9.72322 16.7084 10.2195 16.5139 10.8981 15.9962C11.5912 15.4674 12.3973 14.6631 13.5302 13.5302C14.6631 12.3973 15.4674 11.5911 15.9962 10.8981C16.514 10.2194 16.7084 9.72316 16.7084 9.21862C16.7084 8.71409 16.514 8.21784 15.9962 7.53919C15.4674 6.84613 14.6631 6.03997 13.5302 4.90706L12.0055 3.38237C11.3533 2.73008 10.8944 2.27211 10.4963 1.94357C10.1085 1.62349 9.81439 1.45761 9.50776 1.36967C9.20113 1.28173 8.86384 1.26654 8.36533 1.33242ZM8.20156 0.0931949C8.79933 0.0141975 9.32348 0.0164268 9.85236 0.168108C10.3812 0.319789 10.8269 0.595701 11.2919 0.979504C11.7415 1.35052 12.2421 1.85117 12.8676 2.47663L14.4474 4.05647C15.5396 5.14864 16.4043 6.01334 16.99 6.78097C17.5926 7.5708 17.9584 8.33089 17.9584 9.21862C17.9584 10.1064 17.5926 10.8664 16.99 11.6563C16.4043 12.4239 15.5396 13.2886 14.4474 14.3808L14.3808 14.4473C13.2887 15.5395 12.424 16.4043 11.6563 16.9899C10.8665 17.5926 10.1064 17.9584 9.21868 17.9584C8.33095 17.9584 7.57086 17.5926 6.78103 16.9899C6.01339 16.4042 5.14869 15.5395 4.05651 14.4473L2.47671 12.8675C1.85125 12.2421 1.35059 11.7414 0.979565 11.2919C0.595762 10.8268 0.31985 10.3812 0.168169 9.8523C0.0164879 9.32342 0.0142585 8.79927 0.0932559 8.2015C0.169623 7.62365 0.328836 6.93375 0.527739 6.07187L0.778292 4.98614C0.944264 4.26688 1.07961 3.68035 1.24026 3.21226C1.40804 2.7234 1.61936 2.3126 1.96601 1.96595C2.31267 1.6193 2.72346 1.40798 3.21232 1.2402C3.68041 1.07955 4.26694 0.944202 4.98621 0.77823L6.07193 0.527678C6.93381 0.328775 7.62371 0.169562 8.20156 0.0931949ZM6.90918 5.6627C6.50238 5.25591 5.84283 5.25591 5.43604 5.6627C5.02924 6.0695 5.02924 6.72905 5.43604 7.13584C5.84283 7.54264 6.50238 7.54264 6.90918 7.13584C7.31597 6.72905 7.31597 6.0695 6.90918 5.6627ZM4.55215 4.77882C5.44711 3.88387 6.89811 3.88387 7.79306 4.77882C8.68801 5.67377 8.68801 7.12477 7.79306 8.01972C6.89811 8.91468 5.44711 8.91468 4.55215 8.01972C3.6572 7.12477 3.6572 5.67377 4.55215 4.77882ZM9.8275 9.08915C9.68008 9.08776 9.48632 9.15392 9.32015 9.32009C8.9972 9.64303 9.08214 9.96596 9.17283 10.0567C9.26353 10.1474 9.58646 10.2323 9.9094 9.90934C10.5628 9.25598 11.6908 9.03913 12.4137 9.76203C12.9745 10.3228 12.9698 11.1275 12.6344 11.7652C12.802 12.0086 12.7776 12.3445 12.5611 12.561C12.3453 12.7768 12.011 12.8018 11.7677 12.6361C11.387 12.8384 10.9539 12.9142 10.5409 12.8294C10.2028 12.7599 9.98503 12.4295 10.0545 12.0914C10.124 11.7533 10.4544 11.5355 10.7925 11.605C10.9402 11.6353 11.1782 11.5869 11.3825 11.3825C11.7055 11.0595 11.6206 10.7366 11.5299 10.6459C11.4392 10.5552 11.1162 10.4703 10.7933 10.7932C10.1399 11.4466 9.01185 11.6634 8.28895 10.9405C7.72815 10.3797 7.7329 9.57508 8.06828 8.93739C7.90067 8.69392 7.92513 8.35809 8.14164 8.14158C8.35736 7.92585 8.69154 7.90079 8.93479 8.06639C9.21801 7.91588 9.52919 7.83628 9.83928 7.8392C10.1844 7.84246 10.4616 8.12491 10.4584 8.47007C10.4551 8.81523 10.1727 9.0924 9.8275 9.08915Z" fill="#13465B"/>
</svg>
