<svg width="57" height="50" viewBox="0 0 57 50" fill="none" xmlns="http://www.w3.org/2000/svg">
<g filter="url(#filter0_dd_147_493)">
<circle cx="25" cy="25" r="19" fill="#13465B"/>
</g>
<path d="M20.8706 16.0853C21.0201 16.0525 21.1841 16.0197 21.2352 16.0087C21.2862 15.9978 21.505 15.9978 21.7274 16.0051C22.0228 16.016 22.216 16.0452 22.4567 16.1145C22.6354 16.1655 22.9307 16.2858 23.1057 16.3807C23.2844 16.4755 23.5287 16.6322 23.6527 16.7343C23.7767 16.8328 23.9626 17.0224 24.0684 17.1537C24.1778 17.2849 24.3273 17.5147 24.4075 17.6642C24.484 17.8137 24.5825 18.0689 24.6263 18.2293C24.6737 18.4189 24.6992 18.6341 24.6992 18.8492C24.6992 19.0279 24.6737 19.3086 24.6481 19.4691C24.619 19.6295 24.5606 19.8848 24.5205 20.0343C24.4804 20.1838 24.3892 20.4791 24.3127 20.6906C24.2397 20.9021 24.0902 21.2776 23.9809 21.5292C23.8678 21.7808 23.7183 22.0762 23.649 22.1856C23.5798 22.295 23.4376 22.4736 23.3355 22.583C23.2334 22.6888 23.0511 22.8456 22.9307 22.9258C22.8104 23.0096 22.6135 23.119 22.4932 23.1737C22.3728 23.2248 22.1541 23.2977 22.0082 23.3305C21.866 23.3633 21.6035 23.3889 21.4248 23.3889C21.2498 23.3889 20.969 23.3633 20.7976 23.3269C20.6263 23.2941 20.371 23.2211 20.2325 23.1628C20.0939 23.1081 19.8897 23.006 19.7803 22.9404C19.6746 22.8784 19.4558 22.6851 19.2954 22.5137C19.0656 22.2731 18.9672 22.1309 18.8469 21.8756C18.7593 21.697 18.6609 21.4235 18.6281 21.274C18.5843 21.0771 18.5588 20.7562 18.5442 20.1436C18.5333 19.6076 18.5442 19.1373 18.5697 18.8857C18.5916 18.6632 18.6354 18.3788 18.6609 18.2476C18.6901 18.1163 18.7557 17.8939 18.8104 17.7553C18.8651 17.6168 18.9818 17.3943 19.0656 17.2631C19.1495 17.1318 19.3099 16.9458 19.4157 16.8474C19.5251 16.7489 19.7293 16.5921 19.8678 16.5046C20.0064 16.4135 20.2288 16.2931 20.3601 16.2421C20.4913 16.1874 20.7211 16.1181 20.8706 16.0853Z" fill="#FFC95E"/>
<path d="M28.072 16.6432C28.2142 16.5958 28.4403 16.5374 28.5825 16.5119C28.7356 16.4827 29.0055 16.4682 29.2571 16.4755C29.5852 16.4864 29.742 16.5119 29.9681 16.5848C30.1285 16.6359 30.3583 16.7343 30.4786 16.8036C30.5989 16.8729 30.7958 17.0188 30.9198 17.1245C31.0401 17.2302 31.2042 17.4016 31.2808 17.5001C31.361 17.5985 31.5725 17.9632 31.7475 18.3023C31.9262 18.6414 32.1778 19.0862 32.309 19.2868C32.4403 19.4873 32.6882 19.841 32.8633 20.0707C33.0346 20.3004 33.3409 20.6578 33.5415 20.8583C33.7457 21.0625 34.0337 21.3105 34.1978 21.4162C34.2301 21.4375 34.2614 21.4583 34.2908 21.4781C34.4312 21.5726 34.4379 21.6829 34.2999 21.7808C34.1832 21.8574 33.9644 21.985 33.8149 22.0689C33.6655 22.1528 33.3519 22.2986 33.1222 22.3971C32.8924 22.4955 32.5059 22.645 32.2653 22.7289C32.0246 22.8127 31.6709 22.9185 31.4813 22.9586C31.2188 23.0169 31.1021 23.0607 30.9891 23.1518C30.9088 23.2138 30.7849 23.3013 30.7156 23.3451C30.6463 23.3852 30.464 23.4691 30.3145 23.5274C30.165 23.5894 29.8769 23.666 29.6764 23.6988C29.4321 23.7389 29.2352 23.7535 29.0748 23.7353C28.9435 23.7243 28.681 23.655 28.4913 23.5821C28.1996 23.4727 28.1158 23.4545 27.9626 23.4764C27.8642 23.4873 27.5579 23.5201 27.2881 23.5529C27.0182 23.5821 26.588 23.6076 26.3327 23.6076C25.9061 23.6076 25.866 23.6003 25.8806 23.542C25.8915 23.5092 25.9134 23.3415 25.9353 23.1701C25.9572 22.9987 25.9936 22.6304 26.0155 22.3497C26.0374 22.0689 26.0702 21.1245 26.0848 20.253C26.103 19.2612 26.1285 18.6049 26.1541 18.5028C26.1796 18.4116 26.2634 18.2002 26.3473 18.0288C26.4713 17.7735 26.5552 17.6605 26.8286 17.3907C27.0948 17.1245 27.2261 17.026 27.4886 16.8911C27.6673 16.8 27.9298 16.6869 28.072 16.6432Z" fill="#FFC95E"/>
<path d="M18.1176 23.8446C18.278 23.79 18.515 23.7243 18.6463 23.6988C18.7776 23.6733 18.9708 23.6477 19.0766 23.6477C19.2261 23.6441 19.3282 23.6733 19.5688 23.79C19.7329 23.8702 19.9736 23.965 20.1048 23.9978C20.2944 24.0525 20.4877 24.0634 21.0893 24.0634C21.691 24.0634 21.8842 24.0525 22.0738 23.9978C22.2051 23.9613 22.4494 23.8665 22.6208 23.7863C22.9198 23.6405 22.938 23.6368 23.2042 23.6587C23.3537 23.6696 23.6345 23.7207 23.8241 23.7754C24.0137 23.8264 24.3017 23.9322 24.4622 24.0087C24.6226 24.0817 24.8195 24.1947 24.8997 24.253C24.9799 24.3114 25.1076 24.4499 25.1805 24.5593C25.2534 24.6687 25.3555 24.8656 25.4066 25.0005C25.4576 25.1391 25.5014 25.2631 25.5014 25.2849C25.5014 25.3068 25.2826 25.325 24.9471 25.336C24.4768 25.3469 24.3382 25.3615 24.072 25.4454C23.8933 25.4964 23.6235 25.6022 23.4704 25.6824C23.3136 25.759 23.0693 25.9121 22.9307 26.0215C22.7922 26.1309 22.5989 26.3168 22.5041 26.4372C22.4129 26.5539 22.278 26.7763 22.2051 26.9258C22.1249 27.0862 22.0483 27.3269 22.0155 27.5092C21.9754 27.7316 21.9644 27.9285 21.9827 28.2202C21.9936 28.4426 22.041 28.8182 22.0921 29.0589C22.1395 29.2995 22.2233 29.635 22.278 29.8064C22.3291 29.9777 22.4202 30.2075 22.4749 30.3168C22.5333 30.4262 22.6026 30.5502 22.6317 30.5903C22.6828 30.6596 22.6755 30.6705 22.515 30.7653C22.4239 30.8237 22.2853 30.9294 22.2088 31.0024C22.1285 31.0789 22.0046 31.2284 21.928 31.3378C21.8551 31.4472 21.742 31.6368 21.6837 31.7571C21.6217 31.8775 21.5232 32.1327 21.4613 32.3223C21.3993 32.5119 21.3263 32.8073 21.2935 32.9786C21.2607 33.15 21.2352 33.2922 21.2352 33.2959C21.2352 33.3029 19.936 33.3065 15.5358 33.3068C15.2438 33.3068 15.0083 33.0648 15.0182 32.773C15.0182 32.711 15.0365 32.6636 15.0365 32.6322C15.0583 32.3916 15.1167 31.8738 15.1641 31.4837C15.2115 31.0935 15.3136 30.4189 15.3829 29.9887C15.4558 29.5584 15.5725 28.9276 15.6418 28.5848C15.711 28.2421 15.8532 27.6368 15.9553 27.2357C16.0574 26.8346 16.2215 26.2694 16.32 25.9777C16.4184 25.686 16.5934 25.2594 16.7065 25.0297C16.8596 24.7125 16.9617 24.5593 17.1149 24.4098C17.2279 24.2968 17.4284 24.1473 17.5706 24.0744C17.7092 24.0014 17.9572 23.8957 18.1176 23.8446Z" fill="#FFC95E"/>
<path d="M27.0583 24.0452C27.1635 24.0053 27.3372 23.9582 27.4431 23.9398C27.4433 23.9397 27.4432 23.9395 27.443 23.9395C27.4428 23.9395 27.4428 23.9392 27.443 23.9391C27.5331 23.9236 27.6123 23.9108 27.6352 23.9052C27.6396 23.9041 27.6441 23.9034 27.6483 23.905C27.6786 23.9163 27.8049 23.9734 27.9517 24.0452C28.1194 24.1254 28.3856 24.2239 28.546 24.2676C28.7903 24.3369 28.9362 24.3478 29.4576 24.3478C29.9827 24.3515 30.1212 24.3369 30.3692 24.2713C30.5296 24.2275 30.7922 24.1291 30.9526 24.0488L30.9539 24.0482C31.2407 23.9139 31.2483 23.9103 31.4995 23.9431C31.6418 23.9613 31.897 24.0233 32.072 24.0853C32.2507 24.1436 32.495 24.2421 32.619 24.3041C32.7466 24.3661 32.9471 24.49 33.0675 24.5739C33.1878 24.6578 33.3701 24.8182 33.4722 24.924C33.5743 25.0333 33.7092 25.2193 33.7675 25.3396C33.8295 25.46 33.9316 25.7152 33.9936 25.9048C34.0556 26.0944 34.165 26.5065 34.2343 26.8164C34.3036 27.1263 34.3984 27.6259 34.4494 27.9285C34.5005 28.2275 34.5807 28.7963 34.6317 29.1865C34.6828 29.5766 34.7484 30.1345 34.7776 30.4262C34.8104 30.7179 34.8578 31.243 34.887 31.5931C34.9645 32.5235 34.2161 33.3068 33.2824 33.3068H31.9079C30.2088 33.3068 28.8195 33.2959 28.8195 33.2776C28.8195 33.2631 28.7867 33.0953 28.7466 32.9057C28.7065 32.7161 28.6299 32.4281 28.5789 32.2676C28.5242 32.1072 28.4111 31.8374 28.3236 31.666C28.2288 31.4764 28.0793 31.2576 27.9371 31.1044C27.8258 30.9868 27.6756 30.8524 27.4648 30.7208C27.4139 30.689 27.3989 30.6208 27.4339 30.5721C27.4667 30.521 27.5397 30.3971 27.5907 30.2986C27.6381 30.1965 27.7256 29.9777 27.7767 29.8064C27.8314 29.635 27.9189 29.2922 27.9699 29.0406C28.0465 28.6797 28.0647 28.4755 28.0684 28.0561C28.0684 27.6441 28.0574 27.48 28.0027 27.3086C27.9663 27.1883 27.8824 26.9841 27.8131 26.8529C27.7475 26.7216 27.6126 26.521 27.5178 26.408C27.4193 26.2913 27.237 26.1127 27.1057 26.0106C26.9745 25.9085 26.7557 25.7663 26.6135 25.6933C26.4713 25.624 26.2452 25.5256 26.103 25.4782C25.9608 25.4308 25.8186 25.3943 25.7821 25.3943C25.7493 25.3943 25.7092 25.3724 25.6983 25.3469C25.6873 25.325 25.7493 25.1974 25.8405 25.0662C25.9316 24.9349 26.1176 24.7198 26.2562 24.5885C26.3911 24.4572 26.5843 24.2968 26.6864 24.2312C26.7849 24.1692 26.9562 24.0853 27.0583 24.0452Z" fill="#FFC95E"/>
<path d="M24.1559 26.1054C24.2653 26.0689 24.4294 26.0288 24.5205 26.0106C24.6117 25.996 24.8742 25.9887 25.1039 25.996C25.392 26.0033 25.6108 26.0324 25.7967 26.0871C25.9462 26.1309 26.1832 26.2257 26.3254 26.2986C26.4895 26.3861 26.6791 26.532 26.8578 26.707C27.0438 26.8893 27.1677 27.0498 27.2297 27.192C27.2844 27.305 27.3464 27.4946 27.3683 27.6113C27.3938 27.7353 27.4011 27.9796 27.3865 28.2202C27.3756 28.4426 27.3391 28.7526 27.3063 28.913C27.2735 29.0735 27.2078 29.3542 27.1568 29.5329C27.1057 29.7116 27.0182 29.9522 26.9635 30.0616C26.9052 30.171 26.7666 30.357 26.6463 30.4736C26.5296 30.5903 26.3291 30.7398 26.1978 30.8055C26.0665 30.8747 25.8624 30.9586 25.742 30.9878C25.6217 31.0206 25.3519 31.057 25.1404 31.068C24.8596 31.0826 24.6846 31.0753 24.484 31.0315C24.3346 30.9987 24.0975 30.9185 23.9553 30.8492C23.8131 30.7799 23.5944 30.6268 23.4631 30.5065C23.3026 30.3606 23.1823 30.2111 23.0948 30.0397C23.0219 29.9012 22.9125 29.6168 22.8505 29.4053C22.7885 29.1938 22.7119 28.8729 22.6791 28.6942C22.65 28.5156 22.6244 28.2348 22.6244 28.0744C22.6244 27.9139 22.639 27.6915 22.6609 27.5821C22.6828 27.4727 22.7411 27.2904 22.7958 27.181C22.8541 27.057 22.9964 26.8784 23.1677 26.707C23.35 26.5283 23.5324 26.3861 23.7001 26.3023C23.8423 26.2293 24.0465 26.1418 24.1559 26.1054Z" fill="#FFC95E"/>
<path d="M22.6755 31.5019C22.7776 31.3998 22.9307 31.2831 23.0146 31.243C23.1134 31.1948 23.229 31.1955 23.3272 31.2451L23.5615 31.3633C23.7803 31.4691 24.0866 31.5931 24.247 31.6368C24.4731 31.6951 24.6481 31.7134 25.031 31.7134C25.4212 31.7134 25.5852 31.6951 25.815 31.6332C25.9754 31.5894 26.2306 31.4982 26.3801 31.4253C26.5296 31.3524 26.6974 31.2649 26.7521 31.2248C26.8396 31.1664 26.8687 31.1628 26.9526 31.1993C27.0109 31.2248 27.1349 31.2941 27.237 31.356C27.361 31.4326 27.4704 31.5493 27.5871 31.7243C27.6819 31.8629 27.8022 32.078 27.8532 32.2056C27.9043 32.3296 27.9882 32.5921 28.0356 32.7854C28.0866 32.9823 28.1522 33.3251 28.1814 33.5438C28.2743 34.2406 27.6978 34.8383 26.9949 34.8383H22.1765C21.9644 34.8383 21.7958 34.66 21.8077 34.4481C21.8186 34.2293 21.8514 33.8647 21.8806 33.635C21.9134 33.4053 21.9681 33.0771 22.0046 32.9057C22.0447 32.7343 22.1103 32.4973 22.1504 32.377C22.1905 32.2567 22.2853 32.0525 22.3583 31.9212C22.4312 31.79 22.577 31.6003 22.6755 31.5019Z" fill="#FFC95E"/>
<defs>
<filter id="filter0_dd_147_493" x="-7" y="-7" width="64" height="64" filterUnits="userSpaceOnUse" color-interpolation-filters="sRGB">
<feFlood flood-opacity="0" result="BackgroundImageFix"/>
<feColorMatrix in="SourceAlpha" type="matrix" values="0 0 0 0 0 0 0 0 0 0 0 0 0 0 0 0 0 0 127 0" result="hardAlpha"/>
<feOffset dx="-1" dy="-1"/>
<feGaussianBlur stdDeviation="6"/>
<feComposite in2="hardAlpha" operator="out"/>
<feColorMatrix type="matrix" values="0 0 0 0 0 0 0 0 0 0 0 0 0 0 0 0 0 0 0.05 0"/>
<feBlend mode="normal" in2="BackgroundImageFix" result="effect1_dropShadow_147_493"/>
<feColorMatrix in="SourceAlpha" type="matrix" values="0 0 0 0 0 0 0 0 0 0 0 0 0 0 0 0 0 0 127 0" result="hardAlpha"/>
<feOffset dx="1" dy="1"/>
<feGaussianBlur stdDeviation="6"/>
<feComposite in2="hardAlpha" operator="out"/>
<feColorMatrix type="matrix" values="0 0 0 0 0 0 0 0 0 0 0 0 0 0 0 0 0 0 0.05 0"/>
<feBlend mode="normal" in2="effect1_dropShadow_147_493" result="effect2_dropShadow_147_493"/>
<feBlend mode="normal" in="SourceGraphic" in2="effect2_dropShadow_147_493" result="shape"/>
</filter>
</defs>
</svg>
