<svg width="57" height="50" viewBox="0 0 57 50" fill="none" xmlns="http://www.w3.org/2000/svg">
<g filter="url(#filter0_dd_147_476)">
<circle cx="25" cy="25" r="19" fill="#13465B"/>
</g>
<path fill-rule="evenodd" clip-rule="evenodd" d="M25 29C28.866 29 32 25.866 32 22C32 18.134 28.866 15 25 15C21.134 15 18 18.134 18 22C18 25.866 21.134 29 25 29ZM25 19C24.7159 19 24.5259 19.3408 24.1459 20.0225L24.0476 20.1989C23.9397 20.3926 23.8857 20.4894 23.8015 20.5533C23.7173 20.6172 23.6125 20.641 23.4028 20.6884L23.2119 20.7316C22.474 20.8986 22.105 20.982 22.0172 21.2643C21.9294 21.5466 22.181 21.8407 22.684 22.429L22.8142 22.5812C22.9571 22.7483 23.0286 22.8319 23.0608 22.9353C23.0929 23.0387 23.0821 23.1502 23.0605 23.3733L23.0408 23.5763C22.9648 24.3612 22.9267 24.7536 23.1565 24.9281C23.3864 25.1025 23.7318 24.9435 24.4227 24.6254L24.6014 24.5431C24.7978 24.4527 24.8959 24.4075 25 24.4075C25.1041 24.4075 25.2022 24.4527 25.3986 24.5431L25.5773 24.6254C26.2682 24.9435 26.6136 25.1025 26.8435 24.9281C27.0733 24.7536 27.0352 24.3612 26.9592 23.5763L26.9395 23.3733C26.9179 23.1502 26.9071 23.0387 26.9392 22.9353C26.9714 22.8319 27.0429 22.7483 27.1858 22.5812L27.316 22.429C27.819 21.8407 28.0706 21.5466 27.9828 21.2643C27.895 20.982 27.526 20.8986 26.7881 20.7316L26.5972 20.6884C26.3875 20.641 26.2827 20.6172 26.1985 20.5533C26.1143 20.4894 26.0603 20.3926 25.9524 20.1989L25.8541 20.0225C25.4741 19.3408 25.2841 19 25 19Z" fill="#FFC95E"/>
<path d="M17.4952 25.9945L15.9921 27.5508C15.4519 28.1101 15.1819 28.3897 15.0884 28.6265C14.8755 29.1661 15.0577 29.7647 15.5214 30.0485C15.7249 30.1731 16.0919 30.2119 16.8259 30.2895C17.2403 30.3334 17.4476 30.3553 17.6211 30.4218C18.0097 30.5707 18.3119 30.8837 18.4558 31.286C18.52 31.4657 18.5412 31.6803 18.5835 32.1094C18.6585 32.8694 18.696 33.2494 18.8163 33.4601C19.0904 33.9402 19.6685 34.1289 20.1897 33.9084C20.4184 33.8116 20.6884 33.532 21.2285 32.9727L23.7106 30.4028C21.0131 29.9923 18.7322 28.3139 17.4952 25.9945Z" fill="#FFC95E"/>
<path d="M26.2894 30.4028L28.7715 32.9727C29.3116 33.532 29.5816 33.8116 29.8103 33.9084C30.3315 34.1289 30.9096 33.9402 31.1837 33.4601C31.304 33.2494 31.3415 32.8694 31.4165 32.1094C31.4588 31.6803 31.48 31.4657 31.5442 31.286C31.6881 30.8837 31.9903 30.5707 32.3789 30.4218C32.5525 30.3553 32.7597 30.3334 33.1741 30.2895C33.9081 30.2119 34.2751 30.1731 34.4786 30.0485C34.9423 29.7647 35.1245 29.1661 34.9116 28.6265C34.8181 28.3897 34.5481 28.1101 34.0079 27.5508L32.5048 25.9945C31.2677 28.3139 28.9869 29.9923 26.2894 30.4028Z" fill="#FFC95E"/>
<defs>
<filter id="filter0_dd_147_476" x="-7" y="-7" width="64" height="64" filterUnits="userSpaceOnUse" color-interpolation-filters="sRGB">
<feFlood flood-opacity="0" result="BackgroundImageFix"/>
<feColorMatrix in="SourceAlpha" type="matrix" values="0 0 0 0 0 0 0 0 0 0 0 0 0 0 0 0 0 0 127 0" result="hardAlpha"/>
<feOffset dx="-1" dy="-1"/>
<feGaussianBlur stdDeviation="6"/>
<feComposite in2="hardAlpha" operator="out"/>
<feColorMatrix type="matrix" values="0 0 0 0 0 0 0 0 0 0 0 0 0 0 0 0 0 0 0.05 0"/>
<feBlend mode="normal" in2="BackgroundImageFix" result="effect1_dropShadow_147_476"/>
<feColorMatrix in="SourceAlpha" type="matrix" values="0 0 0 0 0 0 0 0 0 0 0 0 0 0 0 0 0 0 127 0" result="hardAlpha"/>
<feOffset dx="1" dy="1"/>
<feGaussianBlur stdDeviation="6"/>
<feComposite in2="hardAlpha" operator="out"/>
<feColorMatrix type="matrix" values="0 0 0 0 0 0 0 0 0 0 0 0 0 0 0 0 0 0 0.05 0"/>
<feBlend mode="normal" in2="effect1_dropShadow_147_476" result="effect2_dropShadow_147_476"/>
<feBlend mode="normal" in="SourceGraphic" in2="effect2_dropShadow_147_476" result="shape"/>
</filter>
</defs>
</svg>
