<svg width="57" height="50" viewBox="0 0 57 50" fill="none" xmlns="http://www.w3.org/2000/svg">
<g filter="url(#filter0_dd_143_1814)">
<circle cx="25" cy="25" r="19" fill="#13465B"/>
</g>
<path d="M22.7071 17.7929C22.4142 17.5 21.9428 17.5 21 17.5H20.75V16C20.75 15.5858 20.4142 15.25 20 15.25C19.5858 15.25 19.25 15.5858 19.25 16V17.5H19C18.0572 17.5 17.5858 17.5 17.2929 17.7929C17 18.0858 17 18.5572 17 19.5V19.7038C17.2025 19.6506 17.4056 19.6135 17.6056 19.5866C18.2512 19.4998 19.0449 19.4999 19.9105 19.5H20.0895C20.9551 19.4999 21.7488 19.4998 22.3944 19.5866C22.5944 19.6135 22.7975 19.6506 23 19.7038L23 19.5C23 18.5572 23 18.0858 22.7071 17.7929Z" fill="#FFC95E"/>
<path fill-rule="evenodd" clip-rule="evenodd" d="M15 34.25C14.5858 34.25 14.25 34.5858 14.25 35C14.25 35.4142 14.5858 35.75 15 35.75H35C35.4142 35.75 35.75 35.4142 35.75 35C35.75 34.5858 35.4142 34.25 35 34.25H34V20.7719C34 19.4311 34 18.7607 33.6439 18.2468C33.2877 17.7328 32.66 17.4974 31.4045 17.0266C28.9492 16.1059 27.7216 15.6456 26.8608 16.2421C26 16.8386 26 18.1497 26 20.7719V23.5L26.0895 23.5C26.9551 23.4999 27.7488 23.4998 28.3944 23.5866C29.1054 23.6822 29.8568 23.9071 30.4749 24.5251C31.0929 25.1432 31.3178 25.8946 31.4134 26.6056C31.5002 27.2512 31.5001 28.0449 31.5 28.9105L31.5 29V34.25H30V29C30 27.1144 30 26.1716 29.4142 25.5858C28.8284 25 27.8856 25 26 25H24C22.1144 25 21.1716 25 20.5858 25.5858C20 26.1716 20 27.1144 20 29V34.25H18.5V29L18.5 28.9105C18.4999 28.0449 18.4998 27.2512 18.5866 26.6056C18.6822 25.8946 18.9071 25.1432 19.5251 24.5251C20.1432 23.9071 20.8946 23.6822 21.6056 23.5866C22.2512 23.4998 23.0449 23.4999 23.9105 23.5L23.9825 23.5C23.9436 22.5638 23.8183 21.9899 23.4142 21.5858C22.8284 21 21.8856 21 20 21C18.1144 21 17.1716 21 16.5858 21.5858C16 22.1716 16 23.1144 16 25V34.25H15ZM22.25 28C22.25 27.5858 22.5858 27.25 23 27.25H27C27.4142 27.25 27.75 27.5858 27.75 28C27.75 28.4142 27.4142 28.75 27 28.75H23C22.5858 28.75 22.25 28.4142 22.25 28ZM22.25 31C22.25 30.5858 22.5858 30.25 23 30.25H27C27.4142 30.25 27.75 30.5858 27.75 31C27.75 31.4142 27.4142 31.75 27 31.75H23C22.5858 31.75 22.25 31.4142 22.25 31Z" fill="#FFC95E"/>
<defs>
<filter id="filter0_dd_143_1814" x="-7" y="-7" width="64" height="64" filterUnits="userSpaceOnUse" color-interpolation-filters="sRGB">
<feFlood flood-opacity="0" result="BackgroundImageFix"/>
<feColorMatrix in="SourceAlpha" type="matrix" values="0 0 0 0 0 0 0 0 0 0 0 0 0 0 0 0 0 0 127 0" result="hardAlpha"/>
<feOffset dx="-1" dy="-1"/>
<feGaussianBlur stdDeviation="6"/>
<feComposite in2="hardAlpha" operator="out"/>
<feColorMatrix type="matrix" values="0 0 0 0 0 0 0 0 0 0 0 0 0 0 0 0 0 0 0.05 0"/>
<feBlend mode="normal" in2="BackgroundImageFix" result="effect1_dropShadow_143_1814"/>
<feColorMatrix in="SourceAlpha" type="matrix" values="0 0 0 0 0 0 0 0 0 0 0 0 0 0 0 0 0 0 127 0" result="hardAlpha"/>
<feOffset dx="1" dy="1"/>
<feGaussianBlur stdDeviation="6"/>
<feComposite in2="hardAlpha" operator="out"/>
<feColorMatrix type="matrix" values="0 0 0 0 0 0 0 0 0 0 0 0 0 0 0 0 0 0 0.05 0"/>
<feBlend mode="normal" in2="effect1_dropShadow_143_1814" result="effect2_dropShadow_143_1814"/>
<feBlend mode="normal" in="SourceGraphic" in2="effect2_dropShadow_143_1814" result="shape"/>
</filter>
</defs>
</svg>
